<mxfile host="app.diagrams.net" modified="2024-04-12T00:57:24.144Z" agent="Mozilla/5.0 (Windows NT 10.0; Win64; x64) AppleWebKit/537.36 (KHTML, like Gecko) Chrome/123.0.0.0 Safari/537.36 Edg/123.0.0.0" version="24.0.4" etag="ZKgCozfoDnxzEl2B3nR8" type="github">
  <diagram name="페이지-1" id="FfKDOum1UaGZwfiWvw0i">
    <mxGraphModel>
      <root>
        <mxCell id="0" />
        <mxCell id="1" parent="0" />
      </root>
    </mxGraphModel>
  </diagram>
</mxfile>
